<?xml version="1.0" encoding="iso-8859-1"?>
<!-- Generator: Adobe Illustrator 19.0.0, SVG Export Plug-In . SVG Version: 6.00 Build 0)  -->
<svg version="1.1" id="Capa_1" xmlns="http://www.w3.org/2000/svg" xmlns:xlink="http://www.w3.org/1999/xlink" x="0px" y="0px"
	 viewBox="0 0 512 512" style="enable-background:new 0 0 512 512;" xml:space="preserve">
<circle style="fill:#FFD07D;" cx="256" cy="256" r="256"/>
<rect x="378.949" y="307.493" transform="matrix(-0.7071 0.7071 -0.7071 -0.7071 966.1006 385.7967)" style="fill:#25B6D2;" width="48.4" height="170.982"/>
<g style="opacity:0.15;">
	<polygon points="417.768,373.408 371.096,395.192 342.336,366.432 376.56,332.208 	"/>
</g>
<rect x="323.107" y="326.376" transform="matrix(-0.7071 0.7071 -0.7071 -0.7071 855.8642 340.0642)" style="fill:#FE585D;" width="68.791" height="41.824"/>
<g transform="matrix(0.7071 -0.7071 0.7071 0.7071 -11.75 30.16)">
	
		<ellipse transform="matrix(-0.7071 -0.7071 0.7071 -0.7071 -167.1568 581.1731)" cx="36.786" cy="325.206" rx="143.856" ry="143.856"/>
	
		<ellipse transform="matrix(-0.7071 -0.7071 0.7071 -0.7071 -167.1568 581.1731)" style="fill:#FFFFFF;" cx="36.786" cy="325.206" rx="118.672" ry="118.672"/>
</g>
<path style="fill:#8BA0AE;" d="M244.232,337.768c-26.568,0.008-53.12-10.104-73.344-30.328
	c-19.592-19.592-30.384-45.64-30.384-73.344s10.792-53.752,30.384-73.336c40.44-40.44,106.24-40.44,146.688,0l0,0l0,0
	c19.592,19.592,30.384,45.64,30.384,73.336c0,27.704-10.792,53.752-30.384,73.344C297.36,327.656,270.784,337.768,244.232,337.768z
	 M244.232,134.424c-25.536,0-51.072,9.72-70.512,29.16c-18.832,18.832-29.208,43.872-29.208,70.512s10.376,51.68,29.208,70.512
	c38.88,38.872,102.16,38.872,141.032,0c18.832-18.832,29.208-43.872,29.208-70.512s-10.376-51.672-29.208-70.512l0,0
	C295.312,144.144,269.768,134.424,244.232,134.424z"/>
<rect x="217.76" y="214.248" width="14.12" height="76.28"/>
<rect x="249.44" y="188.472" style="fill:#FE585D;" width="14.12" height="102.056"/>
<rect x="281.04" y="170.52" width="14.12" height="120"/>
<rect x="186.112" y="240.56" style="fill:#FE585D;" width="14.12" height="49.952"/>
<g>
</g>
<g>
</g>
<g>
</g>
<g>
</g>
<g>
</g>
<g>
</g>
<g>
</g>
<g>
</g>
<g>
</g>
<g>
</g>
<g>
</g>
<g>
</g>
<g>
</g>
<g>
</g>
<g>
</g>
</svg>
