<?xml version="1.0" encoding="iso-8859-1"?>
<!-- Generator: Adobe Illustrator 19.0.0, SVG Export Plug-In . SVG Version: 6.00 Build 0)  -->
<svg version="1.1" id="Capa_1" xmlns="http://www.w3.org/2000/svg" xmlns:xlink="http://www.w3.org/1999/xlink" x="0px" y="0px"
	 viewBox="0 0 512 512" style="enable-background:new 0 0 512 512;" xml:space="preserve">
<circle style="fill:#FFD07D;" cx="256" cy="256" r="256"/>
<path style="fill:#FFFFFF;" d="M385.072,101.352H126.928v322.672h258.128L385.072,101.352L385.072,101.352z"/>
<rect x="200.24" y="90.792" width="111.472" height="28.16"/>
<rect x="235.472" y="72" width="41.072" height="28.16"/>
<rect x="172.128" y="373.32" style="fill:#AAC1CE;" width="167.752" height="5.504"/>
<path style="fill:#DFE6F4;" d="M308.608,311.992c-31.8,31.8-83.352,31.8-115.152,0s-31.8-83.352,0-115.152L308.608,311.992z"/>
<path style="fill:#FE585D;" d="M259.008,156.88v81.464l57.576-57.576c-0.016-0.016-0.024-0.032-0.04-0.04
	C300.656,164.84,279.832,156.888,259.008,156.88z"/>
<path style="fill:#FFD07D;" d="M193.456,196.84l57.616,57.616v-81.464C230.216,172.984,209.36,180.928,193.456,196.84z"/>
<path d="M342.392,247.4h-81.464l57.576-57.576c0.016,0.016,0.032,0.024,0.04,0.04C334.44,205.752,342.384,226.576,342.392,247.4z"/>
<path style="fill:#25B6D2;" d="M308.568,311.952l-57.616-57.616h81.464C332.424,275.184,324.472,296.04,308.568,311.952z"/>
<g>
</g>
<g>
</g>
<g>
</g>
<g>
</g>
<g>
</g>
<g>
</g>
<g>
</g>
<g>
</g>
<g>
</g>
<g>
</g>
<g>
</g>
<g>
</g>
<g>
</g>
<g>
</g>
<g>
</g>
</svg>
