<?xml version="1.0" encoding="UTF-8"?>
<svg xmlns="http://www.w3.org/2000/svg" viewBox="0 0 50 50">
    <path style="line-height:normal;text-indent:0;text-align:start;text-decoration-line:none;text-decoration-style:solid;text-decoration-color:#000;text-transform:none;block-progression:tb;isolation:auto;mix-blend-mode:normal" d="M 9 4 C 6.2504839 4 4 6.2504839 4 9 L 4 41 C 4 43.749516 6.2504839 46 9 46 L 41 46 C 43.749516 46 46 43.749516 46 41 L 46 9 C 46 6.2504839 43.749516 4 41 4 L 9 4 z M 9 6 L 41 6 C 42.668484 6 44 7.3315161 44 9 L 44 41 C 44 42.668484 42.668484 44 41 44 L 9 44 C 7.3315161 44 6 42.668484 6 41 L 6 9 C 6 7.3315161 7.3315161 6 9 6 z M 22.169922 9 C 20.600784 9 19.48529 9.4598284 18.464844 10 L 13 10 L 13 33.095703 L 20 31.835938 L 20 25.609375 C 20.682244 25.762919 21.350388 26 22 26 L 22 41.095703 L 29 39.835938 L 29 33.609375 C 29.682244 33.762919 30.350388 34 31 34 C 35.61268 34 39 30.202555 39 25.539062 C 39 20.902555 35.795674 17 31.169922 17 C 30.740788 17 30.350068 17.039972 29.980469 17.099609 C 29.783946 12.659845 26.647826 9 22.169922 9 z M 22.169922 11 C 25.70417 11 28 13.77557 28 17.539062 C 28 17.745386 27.989337 17.946621 27.974609 18.146484 L 27.958984 18.300781 C 27.662861 21.338035 25.68258 23.546564 22.863281 23.933594 L 22.585938 23.972656 C 22.39395 23.989523 22.199127 24 22 24 C 21.223121 24 20.009041 23.766638 19.396484 23.501953 L 18 22.898438 L 18 30.164062 L 15 30.703125 L 15 12 L 18.927734 12 L 19.154297 11.875 C 20.16439 11.317044 20.834132 11 22.169922 11 z M 20.501953 13 C 19.737371 13 19.127219 13.266124 18.628906 13.464844 L 18 13.716797 L 18 21.083984 L 18.375 21.384766 C 19.09238 21.960582 19.873615 22 20.501953 22 C 23.031019 22 25 19.92991 25 17.5 C 25 15.028773 22.946513 13 20.501953 13 z M 20.501953 15 C 21.813393 15 23 16.163227 23 17.5 C 23 18.87809 21.964887 20 20.501953 20 C 20.284562 20 20.175809 19.945018 20 19.898438 L 20 15.142578 C 20.163509 15.097563 20.393934 15 20.501953 15 z M 31.169922 19 C 34.70417 19 37 21.77557 37 25.539062 C 37 29.27557 34.54732 32 31 32 C 30.223121 32 29.009041 31.766638 28.396484 31.501953 L 27 30.898438 L 27 38.164062 L 24 38.703125 L 24 25.740234 C 25.126316 25.449179 26.139843 24.917612 27 24.199219 L 27 29.083984 L 27.375 29.384766 C 28.09238 29.960582 28.873615 30 29.501953 30 C 32.031019 30 34 27.92991 34 25.5 C 34 23.028773 31.946513 21 29.501953 21 C 29.419754 21 29.375982 21.041454 29.300781 21.050781 C 29.542123 20.47294 29.730842 19.864991 29.847656 19.226562 C 30.23778 19.110556 30.620064 19 31.169922 19 z M 29.501953 23 C 30.813393 23 32 24.163227 32 25.5 C 32 26.87809 30.964887 28 29.501953 28 C 29.284562 28 29.175809 27.945018 29 27.898438 L 29 23.142578 C 29.163509 23.097563 29.393934 23 29.501953 23 z" font-weight="400" font-family="sans-serif" white-space="normal" overflow="visible"/>
</svg>